<svg width="20" height="21" viewBox="0 0 20 21" fill="none" xmlns="http://www.w3.org/2000/svg">
<path d="M20 10.0062C20 12.6515 18.9729 15.0573 17.2952 16.8451C17.1487 17.0018 16.9968 17.1536 16.8401 17.2997C15.0519 18.9774 12.6469 20.0046 10.0017 20.0046C4.47971 20.0046 0.0032959 15.5282 0.0032959 10.0062C0.0032959 7.33525 1.05047 4.90871 2.75713 3.11553C2.87222 2.99473 2.98975 2.87679 3.11095 2.76171C4.90454 1.05505 7.33026 0.00787354 10.0017 0.00787354C15.5236 0.00787354 20 4.48429 20 10.0062V10.0062Z" fill="#EFECEB"/>
<path d="M16.174 16.155L0.0587158 0.0539856C0.0901393 0.055618 0.121155 0.0580666 0.152578 0.060107C4.1658 0.327002 8.1023 1.99285 11.1687 5.0597C11.5401 5.43107 11.8915 5.81549 12.2212 6.21094L14.0279 11.7027L14.4698 9.68099C15.4566 11.7027 16.0222 13.8787 16.1687 16.0767C16.1708 16.1024 16.172 16.1289 16.174 16.155Z" fill="#CDC6C6"/>
<path d="M11.5361 15.2503L13.2472 15.0022L9.46909 14.3725C7.87751 13.5693 6.38469 12.503 5.05511 11.1738C3.98998 10.1087 3.0938 8.93908 2.36739 7.69683L6.1733 7.57971L1.35082 5.66288C0.59829 3.86644 0.164483 1.96838 0.048584 0.0535889C0.0836803 0.0552213 0.11796 0.0576698 0.152649 0.0601184L16.1688 16.0767C16.1713 16.111 16.1733 16.1461 16.1757 16.1803C14.6025 16.0853 13.0403 15.7751 11.5361 15.2503V15.2503Z" fill="#8D8585"/>
<path d="M17.2951 16.8451C17.1486 17.0018 16.9968 17.1536 16.8401 17.2997C16.4308 16.9806 16.0296 16.6537 15.6321 16.3232C14.8066 15.6323 14.0014 14.9201 13.2146 14.1904C12.4274 13.4608 11.6716 12.6997 10.9443 11.91C10.2187 11.1187 9.49886 10.3217 8.76143 9.54263L6.55158 7.20179L4.35643 4.84666C3.82305 4.26962 3.28967 3.69297 2.7571 3.11552C1.83399 2.11527 0.91332 1.11217 0 0.102132L0.097127 0.00500488C1.10757 0.918325 2.11027 1.83858 3.11092 2.7617C3.68838 3.29426 4.26502 3.82765 4.84166 4.36103L7.19719 6.55618L9.53803 8.76602C10.3171 9.50386 11.1141 10.2237 11.9054 10.9489C12.6951 11.6762 13.4562 12.432 14.1854 13.2196C14.9155 14.0064 15.6277 14.8112 16.3186 15.6371C16.6491 16.035 16.9764 16.4362 17.2951 16.8451V16.8451Z" fill="#563C37"/>
</svg>
